<?xml version="1.0" standalone="no"?>
<!DOCTYPE svg PUBLIC "-//W3C//DTD SVG 20010904//EN"
 "http://www.w3.org/TR/2001/REC-SVG-20010904/DTD/svg10.dtd">
<svg version="1.0" xmlns="http://www.w3.org/2000/svg"
 width="96.000000pt" height="96.000000pt" viewBox="0 0 96.000000 96.000000"
 preserveAspectRatio="xMidYMid meet">

<g transform="translate(0.000000,96.000000) scale(0.100000,-0.100000)"
fill="#000000" stroke="none">
<path d="M684 690 c0 -69 1 -97 3 -62 2 34 2 90 0 125 -2 34 -3 6 -3 -63z"/>
<path d="M253 730 c0 -36 2 -50 4 -32 2 17 2 47 0 65 -2 17 -4 3 -4 -33z"/>
<path d="M263 615 c0 -22 2 -30 4 -17 2 12 2 30 0 40 -3 9 -5 -1 -4 -23z"/>
<path d="M431 587 c-2 -33 29 -77 69 -97 44 -22 46 -26 28 -50 -7 -9 -3 -5 10
8 l23 25 -38 17 c-45 20 -71 47 -83 86 -5 17 -9 22 -9 11z"/>
<path d="M272 545 c0 -16 2 -22 5 -12 2 9 2 23 0 30 -3 6 -5 -1 -5 -18z"/>
<path d="M692 521 c-1 -25 -11 -64 -23 -88 -21 -43 -79 -93 -109 -93 -13 0
-14 -15 -10 -103 3 -67 10 -110 19 -121 32 -38 102 -2 100 52 -1 25 -2 25 -9
-7 -9 -37 -24 -51 -57 -51 -33 0 -43 29 -42 127 l0 88 49 31 c42 27 50 29 53
15 3 -9 5 -5 6 10 0 15 8 43 17 64 8 21 13 55 11 78 l-4 42 -1 -44z"/>
<path d="M279 473 l-4 -42 21 20 c24 23 60 22 57 -1 0 -8 -4 -31 -7 -50 -5
-26 -2 -23 9 13 11 34 25 53 48 67 35 22 30 28 -6 8 -12 -7 -41 -13 -64 -13
-35 0 -43 3 -46 20 -1 11 -5 1 -8 -22z"/>
<path d="M440 486 c0 -2 8 -10 18 -17 15 -13 16 -12 3 4 -13 16 -21 21 -21 13z"/>
<path d="M471 428 c0 -14 -4 -35 -7 -45 -5 -17 -5 -17 6 0 6 10 9 30 7 45 l-4
27 -2 -27z"/>
<path d="M502 390 c0 -14 2 -19 5 -12 2 6 2 18 0 25 -3 6 -5 1 -5 -13z"/>
<path d="M251 374 c0 -11 3 -14 6 -6 3 7 2 16 -1 19 -3 4 -6 -2 -5 -13z"/>
<path d="M351 355 c-1 -6 6 -20 14 -32 14 -20 14 -22 -6 -28 -33 -11 -67 3
-83 33 -9 15 -15 21 -16 14 0 -19 46 -62 68 -62 11 0 34 6 53 14 29 12 30 14
12 20 -11 4 -25 16 -31 29 -6 12 -11 17 -11 12z"/>
<path d="M496 331 l-20 -26 25 20 c13 11 25 21 27 21 2 1 0 4 -5 7 -4 3 -17
-7 -27 -22z"/>
<path d="M672 275 c0 -16 2 -22 5 -12 2 9 2 23 0 30 -3 6 -5 -1 -5 -18z"/>
</g>
</svg>
